<svg version="1.1" id="Layer_1" xmlns="http://www.w3.org/2000/svg" xmlns:xlink="http://www.w3.org/1999/xlink" x="0px" y="0px" viewBox="0 0 846 26" style="enable-background:new 0 0 846 26;" xml:space="preserve" width="846"  height="26" >
<style type="text/css">
	.st0{fill:#FCEA4E;}
</style>
<path class="st0" d="M709,8.4c-22.9,0-45.9-0.3-68.4,0C577.4,9,513.7,10,450.5,10.6c-33.7,0.3-67.4,1-100.7,0.3  C293.1,10.3,236,8.7,179.3,7.4c-33.7-0.6-67.9-1.9-101.6-2.9c-9.8-0.3-20.1-0.6-30.4,1.3c0.9-1,1.9-2.5,3.3-2.9  c6.1-1.3,12.6-2.9,19.2-2.9c19.2-0.3,38.9,0,58.1,0.3c37,0.6,74,2.2,111,2.9c55.7,1,111.4,2.2,167.2,2.2c59,0,118.9-1.6,178.4-1.9  c49.2-0.3,98.3,0.3,147.5,0.6c22.5,0.3,44.5,1,66.5,1.6c9.4,0.3,18.3,1.3,27.2,1.9c1.4,0,2.8,0.6,5.6,1.3  c-5.2,2.9-12.2-0.6-15.5,3.5c-3.7-2.5-8-2.5-12.6-2.5c-17.8,0.6-35.1,1-52.9,1.6c-52.4,2.5-105.4,4.8-157.8,7.3  c-2.8,0-5.6,0.3-8.4,1.3c21.5,0,42.6,0,64.2,0c22.5-0.3,44.5-1,67-1.3c22-0.3,43.5-0.3,65.6-1c21.5-0.3,43.1-1.3,64.2-0.6  c0.5,0.6,0.5,1.3,0.5,1.9c-1.9,0.3-3.3,0.6-5.2,1c-68.8,1.3-137.7,2.9-206.5,3.8c-60.9,1-122.2,1.9-183.1,1.9  c-57.1,0.3-114.3,0.3-171.9-1c-55.7-1-111.4-2.9-167.2-4.8c-33.7-1.3-67.9-2.9-101.6-4.4c-3.3,0-6.6-0.6-9.8-1.9  c9.4-0.3,19.2-1,28.6-0.6c59.9,0.6,119.9,1.9,179.8,2.5c82.9,0.6,165.8,2.9,248.6,0.6c43.5-1,87.6-1,131.1-2.2  c40.3-1,80.1-2.5,120.3-4.1C708.5,9.3,708.5,9,709,8.4z M572.7,20.7c0-0.3,0-0.3,0-0.6c-17.3,0-35.1,0-52.4,0c0,0.3,0,0.3,0,0.6  C537.6,20.7,554.9,20.7,572.7,20.7z"/>
</svg>